<svg xmlns="http://www.w3.org/2000/svg" width="300" height="104" viewBox="0 0 300 104" role="img" aria-labelledby="title">
  <title id="title">Mercado Pago</title>
  <ellipse cx="60" cy="52" rx="58" ry="40" fill="#2abcff"/>
  <path fill="#0a0080" d="M60 10c33.8 0 60 18.5 60 42s-26.2 42-60 42S0 75.5 0 52 26.2 10 60 10Zm0 7C30.4 17 8 32.1 8 52s22.4 35 52 35 52-15.1 52-35S89.6 17 60 17Z"/>
  <path fill="#fff" d="M41.6 42.2c-1 .9-1.3 1.9-.6 2.7 1.8 2.3 7 3.1 11.6 1.6 3.3-1 7-4.1 10.4-6.7 4.1-3.3 8.1-6.4 13.1-7.8 6-1.7 9.4.1 15.2 4.4 5.2 3.8 24.6 20.8 28.3 24.1-2.6 7.2-9.7 13.5-19.5 18.1-.4 2-1.8 4.4-5 6.4-3.2 2.1-6.5 2.5-9.3 1.5-1.1 1.9-2.8 3.3-5 4.4-3.4 1.8-6.8 1.5-9.2.3-1.3 1.2-3.3 2.3-6.5 2.6-4.8.5-9.1-1.8-11.2-3.1-2.3 2.2-5.3 3.5-8.7 3.5-5.2 0-9.6-3.1-11.4-7.6-2 .3-4.3.1-6.5-1-4-1.7-6-4.4-6.8-6.6-1.8.4-3.8.2-6-.6-4.3-1.8-7.1-5.2-7.8-9.5A9.8 9.8 0 0 1 0 66.4c2.8-10.2 11.7-18.8 24.3-24.8 5.4 2.2 14.6 4.6 18.8 4.6 3.3 0 6.5-1.1 9.6-2 2.1-.7 4.3-1.4 6.7-1.8l-4.6 4.8Zm54.9 21.1c-.4-.4-20.8-18.2-25.4-21.6-3.8-2.9-6.5-3.8-10.2-2.6-3.6 1-7.7 4.1-11.4 7.1-4.4 3.5-8.5 6.6-12.4 7.8-5.6 1.8-12.5.6-15.8-2.9-1.6-1.7-2-3.9-.9-5.8l.3-.5c-7.2 3.5-12.5 8.2-15.2 13.8 13.8 3 20.2 6.8 23.2 9 1.7-1.2 3.7-1.9 6-1.9 3 0 5.7 1.3 7.7 3.5 1.9-1.1 4.4-1.8 7.1-1 3.1.8 5.1 2.8 6.2 5.1 2.2-.7 4.8-.6 7.3.6 5.1 2.2 6.3 6.8 5.9 10.3h.4c5.7 0 10.4 4.7 10.4 10.4 0 .9-.1 1.7-.3 2.5 2.1.9 4.5 1.6 6.5 1.3 1.9-.2 3-.7 3.5-1.4l-6.2-6.8c-.8-.8-1-1.6-.5-2.1.5-.5 1.4.2 2 .8 3 2.4 6.7 6.2 7.4 6.9 1.4.8 4 .6 5.6-.7 1.8-1.5 1.1-3.3.3-4.3L91 82.5c-.8-.8-1-1.6-.5-2.1.5-.5 1.4.2 2 .8 3 2.4 9.2 8.1 9.2 8.1 1.1.8 3.5 1.9 6.3 0 2.8-1.8 2.3-4.2.6-5.8l-9.9-9.7c-.8-.7-1-1.5-.5-2 .5-.5 1.4.1 2 .7 3.2 2.6 11.6 10 11.6 10 1.1.8 3.8 1.6 6.8-.2 2.8-1.7 2.4-4.6.4-6.5Z"/>
  <text x="139" y="44" fill="#24306b" font-family="Arial, Helvetica, sans-serif" font-size="30" font-weight="800">mercado</text>
  <text x="139" y="78" fill="#09aeea" font-family="Arial, Helvetica, sans-serif" font-size="30" font-weight="800">pago</text>
</svg>
